<?xml version="1.0" standalone="no"?>
<!DOCTYPE svg PUBLIC "-//W3C//DTD SVG 20010904//EN"
 "http://www.w3.org/TR/2001/REC-SVG-20010904/DTD/svg10.dtd">
<svg version="1.0" xmlns="http://www.w3.org/2000/svg"
 width="1000.000000pt" height="1000.000000pt" viewBox="0 0 1000.000000 1000.000000"
 preserveAspectRatio="xMidYMid meet">
<metadata>
Created by potrace 1.14, written by Peter Selinger 2001-2017
</metadata>
<g transform="translate(0.000000,1000.000000) scale(0.100000,-0.100000)"
fill="#000000" stroke="none">
<path d="M0 5000 l0 -5000 5000 0 5000 0 0 5000 0 5000 -5000 0 -5000 0 0
-5000z m7731 4060 l70 0 19 -42 c11 -24 20 -56 20 -71 0 -30 -47 -97 -68 -97
-7 0 -22 -21 -34 -47 -11 -27 -40 -66 -64 -87 -24 -21 -44 -44 -44 -50 0 -6
-23 -45 -50 -86 -50 -74 -110 -203 -110 -235 0 -9 -11 -40 -24 -69 -13 -29
-33 -96 -44 -149 -11 -53 -29 -109 -41 -126 -12 -16 -21 -37 -21 -46 0 -10
-18 -51 -41 -91 -31 -58 -65 -97 -155 -181 -66 -61 -133 -135 -156 -170 -24
-38 -48 -63 -58 -63 -10 0 -23 -7 -30 -14 -12 -15 -61 -27 -189 -47 -52 -8
-98 -24 -150 -51 -51 -27 -101 -44 -155 -54 -44 -8 -108 -22 -141 -33 -33 -10
-79 -24 -102 -30 -34 -9 -46 -19 -60 -48 -9 -20 -40 -69 -69 -109 -28 -40 -57
-88 -63 -107 -8 -23 -35 -56 -77 -93 -36 -31 -82 -82 -103 -113 -51 -75 -64
-85 -90 -71 -12 6 -28 25 -37 42 -30 57 1 192 111 493 20 55 42 119 49 142 6
23 19 50 29 61 21 23 21 47 2 101 -19 54 -37 374 -26 467 6 52 20 93 53 160
24 49 59 140 78 203 l34 113 66 46 c108 77 172 131 225 188 43 46 59 57 110
70 32 8 97 37 145 63 47 27 104 55 128 62 23 7 47 18 53 26 6 7 20 13 32 13
11 0 34 9 51 19 17 11 63 25 101 31 38 6 75 16 82 21 7 6 45 12 85 13 40 1 83
8 94 14 49 26 115 33 221 21 76 -8 111 -8 127 0 21 11 109 20 134 14 8 -2 45
-3 83 -3z m-2223 -1732 c19 -19 14 -62 -11 -99 -24 -36 -45 -48 -269 -154 -76
-36 -138 -70 -138 -75 0 -13 100 -176 173 -283 92 -135 301 -316 448 -389 96
-48 396 -186 418 -193 12 -3 43 0 69 9 77 25 132 28 212 12 172 -33 253 -89
323 -224 61 -118 70 -208 36 -355 -34 -146 -32 -155 163 -649 16 -43 53 -110
81 -150 28 -40 67 -98 87 -128 61 -90 252 -255 288 -248 13 2 18 15 20 50 5
75 -26 274 -59 383 -22 75 -32 133 -39 230 -14 215 -109 491 -219 640 -20 28
-52 77 -70 110 -67 121 -158 242 -262 350 -105 108 -280 330 -319 402 -11 21
-20 48 -20 60 0 12 -14 44 -30 70 -21 34 -37 80 -50 149 -11 54 -27 116 -35
137 -21 52 -19 57 19 57 37 0 35 3 149 -190 74 -127 172 -246 287 -348 221
-197 313 -288 352 -346 23 -33 87 -122 143 -197 101 -135 121 -174 145 -284
14 -64 33 -92 74 -112 27 -12 39 -29 60 -80 14 -35 30 -94 36 -131 11 -77 21
-108 79 -246 37 -84 43 -111 48 -190 2 -50 12 -113 21 -141 18 -52 19 -122 9
-540 -3 -133 -8 -194 -21 -235 -10 -30 -23 -114 -31 -186 -10 -94 -20 -144
-35 -174 -14 -27 -23 -67 -26 -115 -7 -113 -40 -190 -129 -300 -24 -29 -60
-86 -81 -127 -20 -40 -85 -143 -144 -228 -59 -85 -126 -189 -150 -230 -59
-102 -161 -203 -457 -452 -30 -26 -85 -59 -122 -74 -36 -16 -88 -48 -116 -72
-89 -79 -186 -117 -475 -186 -80 -19 -183 -40 -230 -46 -46 -6 -88 -14 -93
-17 -5 -3 -101 -8 -214 -13 -193 -7 -283 -1 -283 20 0 19 44 60 86 79 46 22
62 26 249 57 182 30 291 72 500 192 356 204 613 372 692 454 28 29 83 100 121
158 38 58 122 170 186 249 64 79 131 171 150 205 18 33 65 120 104 191 104
192 162 380 162 525 0 57 19 113 56 169 26 40 27 44 15 96 -7 30 -17 57 -22
60 -5 4 -39 -11 -76 -31 -212 -117 -365 -250 -465 -404 -69 -107 -220 -398
-243 -468 -13 -40 -16 -70 -11 -115 20 -188 20 -191 -9 -255 -15 -34 -36 -69
-46 -78 -18 -16 -21 -16 -36 -2 -13 13 -14 22 -5 48 6 17 14 65 17 108 4 42 8
87 11 98 3 17 -2 23 -22 28 -46 12 -60 -13 -73 -127 -7 -68 -19 -117 -34 -146
-20 -40 -31 -48 -117 -88 -94 -44 -96 -44 -183 -39 -85 5 -88 4 -99 -19 -21
-47 27 -68 195 -81 42 -3 77 -9 77 -13 0 -17 -40 -43 -86 -57 -62 -18 -204
-18 -295 1 -89 19 -131 14 -262 -32 -222 -77 -368 -153 -516 -269 -80 -64
-126 -114 -274 -302 -48 -62 -91 -112 -95 -112 -4 0 -34 48 -66 106 -115 207
-262 370 -436 483 -129 84 -502 269 -564 280 -28 5 -92 7 -142 4 -120 -8 -166
6 -275 79 -135 90 -186 157 -209 275 -11 57 -11 102 6 295 4 50 0 87 -15 148
-25 96 -109 328 -151 414 -39 83 -157 258 -219 328 -66 73 -246 197 -263 180
-7 -7 -13 -62 -16 -139 -5 -160 19 -290 107 -565 52 -164 75 -219 188 -440
122 -238 138 -265 278 -448 81 -107 160 -210 174 -227 35 -43 305 -277 339
-294 15 -7 50 -34 78 -59 28 -25 113 -81 190 -124 76 -44 164 -96 194 -116 92
-62 199 -111 297 -136 51 -13 106 -30 123 -39 27 -14 30 -18 18 -32 -11 -13
-28 -15 -108 -9 -52 3 -122 11 -155 17 -88 16 -299 86 -378 125 -37 19 -76 34
-85 34 -45 0 -180 68 -280 141 -59 43 -152 102 -207 130 -121 63 -133 72 -141
115 -5 28 -18 40 -83 81 -118 74 -232 195 -346 369 -54 82 -110 167 -124 188
-14 22 -49 54 -78 73 -63 40 -75 57 -114 157 -23 61 -33 105 -39 185 -8 111
-35 197 -85 273 -28 42 -98 301 -115 427 -8 62 -9 137 0 290 6 113 13 218 16
234 3 15 -2 89 -11 163 -22 172 -17 270 18 344 14 30 31 91 37 135 30 200 102
376 206 505 41 52 124 164 184 250 76 107 121 162 148 179 21 13 51 43 66 67
32 51 72 87 130 116 22 11 82 62 131 112 50 51 131 121 180 156 50 35 122 88
161 117 40 29 78 53 86 53 37 0 122 34 178 72 42 28 80 44 114 49 28 5 88 27
134 50 72 37 86 40 108 30 36 -16 61 -14 164 13 56 15 102 35 121 50 30 26 32
26 152 20 84 -4 136 -3 167 6 41 11 124 19 395 36 79 5 113 13 164 35 35 16
77 29 92 29 16 0 59 12 96 26 108 41 181 52 201 32z"/>
<path d="M6721 8662 c-19 -9 -36 -22 -38 -28 -5 -15 131 -26 181 -15 54 13 66
28 30 36 -16 4 -45 11 -64 16 -50 13 -71 11 -109 -9z"/>
<path d="M7192 8555 c-106 -34 -243 -129 -263 -182 -5 -13 -23 -32 -40 -41
-17 -9 -65 -43 -107 -74 -42 -32 -80 -58 -83 -58 -3 0 -35 -32 -70 -72 -35
-40 -56 -69 -46 -65 14 5 11 -2 -11 -30 -51 -65 -153 -173 -163 -173 -18 0 -8
36 26 95 39 66 46 81 103 205 37 81 191 300 240 344 12 11 22 27 22 38 0 16
-9 18 -70 18 -77 0 -110 -12 -150 -55 -14 -15 -65 -52 -115 -82 -116 -72 -159
-106 -184 -146 -36 -59 -122 -343 -142 -471 -21 -138 -24 -218 -8 -281 17 -67
30 -73 97 -43 73 33 133 52 257 82 55 13 136 34 180 46 44 13 100 25 124 29
39 5 46 10 53 36 5 19 37 57 91 107 98 90 121 130 245 423 71 171 94 242 109
343 6 39 3 39 -95 7z"/>
<path d="M4805 6965 c-27 -13 -74 -27 -105 -30 -162 -19 -284 -41 -455 -84
-182 -46 -199 -52 -390 -149 -132 -66 -224 -119 -270 -156 -83 -67 -169 -112
-231 -122 -41 -6 -49 -12 -99 -78 -30 -40 -121 -136 -202 -213 -82 -77 -169
-168 -193 -202 -40 -54 -178 -297 -274 -482 -19 -36 -47 -108 -61 -160 -15
-52 -41 -116 -58 -144 -28 -45 -31 -57 -29 -121 2 -49 -4 -90 -18 -135 -11
-35 -23 -102 -27 -148 l-6 -84 39 7 c52 10 113 41 168 85 24 20 74 58 110 84
124 90 226 240 399 583 l111 221 -22 67 c-41 125 -22 315 45 439 23 43 44 63
121 114 126 85 158 93 369 93 158 0 176 -2 219 -22 l46 -23 187 63 c102 35
231 86 286 113 115 56 331 213 400 292 53 60 140 195 132 204 -4 3 -37 7 -74
9 -56 3 -76 0 -118 -21z"/>
<path d="M4971 6721 c-81 -109 -123 -149 -178 -173 -15 -7 -55 -37 -88 -67
-93 -85 -376 -212 -559 -252 -106 -24 -155 -49 -267 -142 -97 -80 -129 -120
-129 -159 0 -44 34 -54 98 -29 29 12 60 21 70 21 44 0 98 25 145 68 80 72 207
166 262 195 71 36 336 116 427 130 61 9 93 8 155 -3 43 -8 119 -14 168 -15 96
0 103 -3 216 -72 33 -20 85 -40 125 -49 94 -19 373 -113 405 -135 15 -10 34
-37 43 -59 9 -22 20 -40 26 -40 15 0 149 -130 180 -176 23 -32 41 -45 90 -63
90 -33 122 -66 184 -195 38 -77 74 -133 116 -181 34 -39 95 -115 136 -171 73
-100 74 -102 109 -245 29 -113 38 -176 45 -294 5 -82 14 -168 19 -190 26 -100
0 -218 -59 -270 -38 -34 -59 -90 -70 -186 -23 -199 -57 -275 -219 -478 -66
-82 -130 -166 -144 -187 -24 -37 -63 -161 -54 -171 7 -6 101 32 151 61 24 14
65 49 92 79 48 52 76 107 240 467 73 159 244 344 439 475 66 44 120 87 120 95
0 7 -29 38 -65 67 -104 86 -153 135 -182 183 -15 25 -51 72 -79 105 -86 102
-198 349 -250 554 -33 128 -47 155 -157 290 -64 79 -83 95 -147 126 -68 34
-75 41 -106 98 -65 123 -139 235 -183 275 -46 42 -228 139 -362 192 -259 103
-420 242 -609 525 -36 55 -68 101 -69 102 -2 2 -40 -46 -85 -106z"/>
<path d="M3525 6230 c-122 -18 -193 -82 -241 -217 -18 -51 -24 -89 -24 -155 0
-98 5 -118 30 -118 28 0 46 30 74 128 56 198 101 243 288 283 51 10 103 22
116 24 24 6 62 39 62 55 0 12 -227 12 -305 0z"/>
<path d="M4695 6205 c-5 -1 -38 -11 -72 -20 -35 -10 -63 -22 -63 -27 0 -18 46
-71 91 -104 26 -19 49 -34 52 -34 3 0 16 19 30 43 14 23 46 62 71 86 32 32 42
47 33 53 -11 7 -120 10 -142 3z"/>
<path d="M5032 6137 c-54 -20 -96 -62 -139 -134 -72 -124 -92 -204 -100 -408
-9 -240 24 -373 116 -476 l39 -44 11 29 c7 16 16 63 22 105 11 90 38 171 49
150 4 -8 13 -66 20 -129 7 -63 16 -121 20 -129 13 -24 131 183 172 299 10 30
23 103 29 162 5 59 16 126 25 149 13 31 15 59 11 120 -15 190 -40 258 -109
292 -47 23 -125 30 -166 14z m73 -192 c31 -31 32 -72 2 -116 -41 -62 -111 -65
-148 -6 -56 91 71 198 146 122z"/>
<path d="M4424 6093 c-35 -36 8 -297 63 -376 15 -21 49 -57 76 -79 46 -39 50
-41 63 -24 24 34 37 122 25 177 -14 65 -104 240 -146 285 -36 38 -55 42 -81
17z"/>
<path d="M5390 6102 c0 -11 65 -160 73 -168 12 -13 77 19 107 52 16 19 30 39
30 44 0 16 -142 80 -176 80 -19 0 -34 -4 -34 -8z"/>
<path d="M6233 6063 c-18 -7 -16 -48 2 -63 8 -6 46 -16 84 -21 89 -11 136 -31
183 -76 47 -46 77 -116 85 -197 3 -37 13 -73 24 -87 l18 -24 22 50 c29 64 29
149 0 229 -30 85 -29 84 -194 174 -34 18 -56 22 -127 21 -47 0 -91 -3 -97 -6z"/>
<path d="M4253 6039 c-41 -20 -123 -99 -123 -118 0 -13 78 -57 129 -72 39 -11
45 -11 56 4 17 24 28 147 16 180 -13 32 -23 33 -78 6z"/>
<path d="M5702 5949 c-28 -11 -98 -67 -163 -130 -53 -53 -75 -108 -82 -211 -4
-62 -3 -68 15 -68 11 0 47 20 81 43 34 24 77 49 94 57 26 10 40 27 65 78 29
58 33 77 33 144 0 85 -8 101 -43 87z"/>
<path d="M3592 5790 c-61 -9 -83 -25 -207 -147 -98 -97 -105 -108 -164 -263
-42 -109 -153 -314 -214 -397 -20 -27 -68 -79 -107 -118 -40 -38 -82 -86 -95
-106 -15 -23 -55 -54 -116 -91 -156 -93 -160 -69 39 -265 240 -237 292 -323
367 -598 73 -270 123 -358 259 -460 62 -47 142 -83 154 -70 9 9 -90 245 -120
287 -17 23 -56 70 -86 103 -104 116 -164 288 -197 565 -9 74 -20 164 -26 200
-5 36 -11 97 -12 136 l-2 71 83 123 c82 123 82 124 82 189 0 145 53 277 175
436 89 117 142 173 207 221 41 31 48 41 54 82 3 26 11 55 16 65 10 20 -6 48
-26 46 -6 -1 -35 -5 -64 -9z"/>
<path d="M3912 5781 c-29 -10 -66 -31 -83 -47 l-29 -28 0 -124 c0 -110 3 -131
24 -181 14 -31 32 -81 40 -111 17 -63 84 -178 168 -291 82 -111 240 -243 327
-274 21 -7 56 -25 78 -38 21 -14 72 -35 113 -47 41 -12 92 -31 112 -41 35 -18
108 -26 108 -13 0 14 -106 181 -136 214 -80 88 -183 227 -188 253 -15 73 7 59
179 -113 93 -94 176 -170 184 -170 11 0 13 13 8 66 -5 50 -24 111 -77 241
-112 276 -149 341 -242 414 -29 22 -72 65 -95 94 -41 52 -59 65 -232 166 -76
44 -90 49 -145 49 -34 -1 -85 -9 -114 -19z m255 -146 c41 -31 60 -51 58 -63
-40 -196 -68 -232 -181 -232 -52 0 -59 3 -90 37 -47 51 -61 100 -45 156 18 59
56 106 105 128 62 28 86 24 153 -26z"/>
<path d="M4027 5547 c-36 -31 -37 -33 -26 -65 14 -42 52 -53 81 -24 26 26 26
78 1 103 -17 18 -19 17 -56 -14z"/>
<path d="M5876 5784 c-19 -19 -20 -36 -4 -52 18 -18 35 -15 58 10 l21 23 -22
17 c-26 22 -33 22 -53 2z"/>
<path d="M5805 5556 c-153 -59 -290 -144 -377 -233 -74 -77 -213 -282 -234
-347 -9 -28 -29 -75 -45 -103 -33 -60 -34 -69 -16 -112 l13 -30 82 49 c46 27
130 81 188 120 58 38 116 73 129 76 51 13 33 -20 -68 -124 -246 -254 -249
-261 -75 -198 109 39 203 85 244 118 16 13 59 39 96 56 37 18 93 53 125 77 84
64 307 284 327 323 9 18 22 68 28 111 l12 79 -42 65 -43 64 -82 17 c-113 22
-189 20 -262 -8z m171 -81 c32 -9 63 -28 89 -55 l39 -40 -13 -52 c-28 -110
-71 -159 -149 -174 -82 -16 -177 50 -202 140 -17 62 -2 95 69 151 62 49 88 54
167 30z"/>
<path d="M5872 5368 c-22 -22 -14 -75 14 -97 33 -26 49 -26 74 -1 41 41 11
110 -48 110 -15 0 -33 -5 -40 -12z"/>
<path d="M3599 5433 c-25 -26 -58 -64 -73 -85 l-27 -36 46 -17 c24 -10 71 -18
102 -19 l58 -1 -3 35 c-3 46 -28 130 -44 153 -12 16 -17 14 -59 -30z"/>
<path d="M6365 5280 c-16 -31 -19 -58 -9 -84 9 -23 124 -23 124 0 0 34 -61
114 -87 114 -7 0 -19 -13 -28 -30z"/>
<path d="M3438 5209 c-10 -5 -18 -15 -18 -21 0 -6 25 -42 56 -80 127 -157 162
-177 306 -178 53 0 99 3 101 8 12 21 -18 75 -64 116 -66 59 -134 97 -242 135
-95 33 -113 36 -139 20z"/>
<path d="M6264 5051 c-20 -9 -165 -170 -172 -192 -2 -5 18 -19 44 -30 71 -32
169 -24 253 21 60 32 181 140 181 161 0 6 -17 17 -37 26 -44 19 -236 28 -269
14z"/>
<path d="M3386 5016 c-17 -80 -19 -74 25 -81 70 -12 74 18 10 79 l-30 29 -5
-27z"/>
<path d="M6582 4878 c-26 -29 -52 -78 -52 -100 0 -20 88 -71 108 -63 28 11 1
185 -29 185 -3 0 -15 -10 -27 -22z"/>
<path d="M3564 4780 c-101 -15 -247 -80 -296 -132 -55 -59 -32 -198 47 -286
37 -41 60 -55 148 -90 170 -68 260 -86 422 -86 153 0 190 9 268 62 65 45 155
88 236 112 46 14 68 25 60 30 -8 4 -67 22 -132 41 -64 18 -112 36 -105 40 7 3
39 9 70 12 66 6 113 26 113 47 0 21 -226 130 -370 179 -177 59 -354 86 -461
71z m-34 -165 c33 -17 60 -61 60 -97 0 -35 -35 -85 -64 -92 -35 -9 -90 18
-105 50 -20 44 -14 102 14 129 28 29 54 31 95 10z"/>
<path d="M6070 4649 c-36 -4 -81 -6 -101 -3 -57 8 -333 -68 -405 -111 -32 -19
-68 -35 -80 -35 -20 0 -52 -26 -43 -34 2 -2 80 -20 173 -40 94 -20 171 -38
174 -40 5 -6 -94 -26 -126 -26 -42 0 -99 -19 -105 -34 -12 -31 81 -74 211 -97
76 -13 129 -30 191 -59 115 -56 152 -59 286 -25 207 51 322 111 360 186 14 25
13 33 -5 81 -40 106 -133 195 -241 233 -45 16 -178 18 -289 4z m314 -190 c31
-14 60 -72 52 -104 -3 -12 -14 -33 -25 -46 -33 -42 -122 -24 -164 32 -18 26
-18 28 -2 63 30 62 80 82 139 55z"/>
<path d="M5240 4251 c0 -11 4 -22 10 -26 5 -3 34 -47 64 -98 30 -51 77 -121
106 -156 28 -35 62 -85 75 -110 25 -50 42 -121 29 -121 -18 0 -72 46 -114 97
-25 30 -63 69 -85 86 -22 18 -77 64 -121 104 -45 40 -85 69 -88 66 -11 -11 -6
-67 10 -108 9 -22 25 -71 35 -110 23 -82 47 -120 130 -212 34 -37 78 -101 100
-144 49 -98 84 -139 173 -199 144 -96 256 -135 369 -128 128 8 171 51 170 168
-1 82 -59 274 -114 381 -100 192 -317 374 -559 469 -47 19 -94 40 -105 47 -11
7 -34 13 -52 13 -26 0 -33 -4 -33 -19z m650 -652 c65 -29 100 -66 100 -105 0
-49 -16 -82 -51 -103 -17 -11 -42 -38 -56 -60 -13 -23 -26 -41 -28 -41 -8 0
-186 103 -190 110 -5 8 31 149 40 158 16 17 102 60 120 61 11 0 40 -9 65 -20z"/>
<path d="M5803 3538 c-30 -14 -45 -60 -32 -97 10 -28 34 -43 89 -56 23 -5 25
-3 26 27 1 18 5 49 9 69 12 58 -33 86 -92 57z"/>
<path d="M4630 4230 c-19 -4 -73 -19 -120 -33 -47 -14 -127 -37 -179 -52 -191
-52 -414 -185 -556 -329 -142 -144 -173 -232 -123 -347 20 -48 25 -53 106 -90
217 -100 279 -95 544 46 178 95 218 123 303 210 118 120 217 330 232 492 6 60
5 63 -16 63 -29 0 -56 -14 -111 -60 -97 -79 -314 -209 -327 -197 -9 9 82 106
120 128 44 25 177 153 177 169 0 11 0 11 -50 0z m-622 -492 c63 -24 74 -43 92
-156 13 -78 13 -84 -7 -110 -22 -29 -103 -60 -161 -61 -27 -1 -44 9 -92 55
-74 71 -88 101 -71 163 24 88 92 147 156 135 17 -4 54 -15 83 -26z"/>
<path d="M3917 3648 c-37 -10 -37 -11 -31 -47 9 -49 10 -50 46 -41 70 17 76
24 62 78 -7 24 -18 25 -77 10z"/>
<path d="M3240 4158 c0 -7 -3 -23 -6 -35 -7 -24 25 -63 51 -63 15 0 65 46 65
59 0 8 -85 51 -100 51 -6 0 -10 -6 -10 -12z"/>
<path d="M3520 4054 c-147 -43 -220 -95 -220 -155 0 -37 24 -44 150 -44 84 0
102 3 152 28 51 25 168 134 168 156 0 15 -79 41 -123 40 -23 0 -80 -11 -127
-25z"/>
<path d="M6483 4007 c-35 -11 -63 -25 -63 -29 0 -19 50 -105 75 -128 26 -24
27 -24 40 -6 30 40 44 176 20 182 -5 2 -38 -7 -72 -19z"/>
<path d="M6088 3963 c-10 -2 -18 -8 -18 -11 0 -18 92 -162 115 -180 30 -24
169 -46 226 -37 l39 7 -29 42 c-55 79 -144 163 -186 175 -40 11 -114 13 -147
4z"/>
<path d="M5010 3820 c0 -3 -7 -43 -15 -90 -8 -47 -15 -109 -15 -138 0 -53 -16
-98 -43 -121 -23 -19 -29 14 -31 175 -1 79 -5 146 -8 150 -16 15 -52 -26 -123
-142 -141 -229 -171 -332 -162 -559 3 -77 10 -157 17 -178 34 -111 175 -181
298 -146 34 9 62 27 102 68 98 99 137 218 161 492 12 124 11 143 -5 200 -17
62 -107 219 -153 269 -13 13 -23 22 -23 20z m-90 -709 c25 -7 48 -52 49 -98 1
-24 -74 -83 -104 -83 -9 0 -32 15 -51 34 -41 41 -46 89 -13 130 21 27 62 33
119 17z"/>
<path d="M3383 3782 c-13 -2 -23 -9 -23 -15 0 -22 70 -117 86 -117 13 0 73 83
78 107 1 10 -110 30 -141 25z"/>
<path d="M6258 3629 c-15 -8 -18 -24 -18 -93 0 -45 3 -86 7 -89 16 -16 106 61
133 113 40 79 40 80 -37 80 -37 0 -76 -5 -85 -11z"/>
<path d="M3186 3315 c-21 -22 -40 -116 -32 -166 16 -106 120 -225 253 -290
102 -50 146 -58 173 -34 11 10 20 26 20 36 0 26 -65 77 -107 84 -131 21 -221
129 -260 307 -9 43 -20 78 -24 78 -4 0 -14 -7 -23 -15z"/>
<path d="M5314 3288 c-20 -38 -15 -151 10 -209 18 -43 91 -141 139 -187 l35
-34 11 64 c17 98 14 186 -8 235 -21 44 -89 116 -140 146 l-30 18 -17 -33z"/>
<path d="M4360 3290 c-71 -24 -91 -50 -129 -169 -33 -103 -37 -136 -21 -146
16 -10 88 38 169 112 l74 68 -7 78 c-5 48 -12 77 -19 77 -7 -1 -37 -9 -67 -20z"/>
<path d="M3577 3188 c-8 -31 6 -89 31 -130 31 -49 179 -190 244 -232 31 -20
110 -56 175 -81 214 -83 341 -163 468 -296 44 -46 95 -91 112 -100 21 -11 49
-47 87 -111 59 -99 115 -163 123 -140 10 28 135 172 212 244 146 138 298 227
478 279 145 43 338 115 389 144 23 13 63 48 90 78 55 59 129 175 120 185 -12
12 -125 14 -159 3 -19 -7 -74 -48 -123 -92 -185 -170 -369 -239 -633 -239 -81
0 -91 -2 -134 -31 -35 -23 -66 -33 -119 -40 -40 -6 -95 -15 -121 -21 -26 -5
-63 -7 -82 -4 -54 10 -147 55 -180 86 -34 32 -89 50 -154 50 -24 0 -74 9 -112
20 -194 58 -324 147 -477 328 -56 65 -85 85 -148 101 -22 5 -49 13 -60 16 -17
5 -23 2 -27 -17z"/>
<path d="M4013 3161 c-40 -3 -77 -11 -83 -17 -18 -19 58 -115 113 -143 32 -15
52 -20 58 -14 13 13 7 176 -6 178 -5 1 -42 -1 -82 -4z"/>
<path d="M5620 3001 c0 -54 4 -81 11 -81 50 0 159 64 159 94 0 7 -33 23 -72
35 -40 13 -79 26 -85 28 -10 4 -13 -15 -13 -76z"/>
<path d="M4380 2954 c-19 -12 -50 -28 -67 -34 -44 -15 -41 -34 9 -70 32 -23
52 -30 88 -30 l48 0 -17 74 c-9 41 -18 76 -21 79 -3 3 -21 -6 -40 -19z"/>
<path d="M5248 2923 c-15 -17 -62 -133 -56 -138 4 -4 192 16 197 21 5 5 -109
134 -118 134 -4 0 -15 -8 -23 -17z"/>
</g>
</svg>
